<svg width="83" height="193" viewBox="0 0 83 193" fill="none" xmlns="http://www.w3.org/2000/svg">
<path d="M4.26704 176L2.34204 172.676L16.2341 164.655L22.7887 176H4.26383H4.26704Z" fill="black" fill-opacity="0.83"/>
<path d="M48.7217 176H30.1968L18.5858 155.89L32.4779 147.869L48.7249 176H48.7217Z" fill="black" fill-opacity="0.83"/>
<path d="M74.6547 176H56.1298L34.8264 139.104L48.7185 131.083L74.6547 176Z" fill="black" fill-opacity="0.83"/>
<g clip-path="url(#clip0)">
<path d="M46.6469 50.3145L41.4907 52.1741L27.1839 57.3182C22.1314 59.0353 17.7118 61.3223 13.453 59.3203C7.66385 55.8861 7.7676 46.9516 12.0835 37.4471C4.45287 46.0966 -9.27809 73.7551 9.29268 76.5481C11.6581 76.9756 15.8703 75.8356 20.4455 73.1923L41.4907 61.3295L83 38.017L46.6469 50.3145Z" fill="black" fill-opacity="0.83"/>
</g>
<defs>
<clipPath id="clip0">
<rect width="83" height="114" fill="white" transform="translate(0 0.0413208)"/>
</clipPath>
</defs>
</svg>
